<svg id="BWM-logo" xmlns="http://www.w3.org/2000/svg" viewBox="0 0 464.97 246.12"><defs><style>.cls-1{fill:#a65729;}.cls-1,.cls-2,.cls-3,.cls-4,.cls-5{stroke:#000;stroke-miterlimit:10;}.cls-1,.cls-2,.cls-3,.cls-4{stroke-width:6px;}.cls-2{fill:#13647f;}.cls-3{fill:#0e5066;}.cls-4{fill:#0b3c4c;}.cls-5{font-size:80px;fill:#fff;stroke-width:2px;font-family:Roboto-Black, Roboto;font-weight:800;}.cls-5,.cls-7{letter-spacing:0em;}.cls-6{letter-spacing:-0.02em;}</style></defs><rect id="Rectangle" class="cls-1" x="3" y="5.88" width="216" height="216"/><path id="wave3" class="cls-2" d="M432,534.34c-27,0-36-42.63-63-42.63-36,0-63,85.25-90,85.25-18,0-45-42.62-63-42.62V648H432Z" transform="translate(-213 -426.12)"/><path id="wave2" class="cls-3" d="M432,556.36c-27,0-36-34.36-63-34.36-36,0-63,68.73-90,68.73-18,0-45-34.37-63-34.37V648H432Z" transform="translate(-213 -426.12)"/><path id="wave1" class="cls-4" d="M432,576c-27,0-36-27-63-27-36,0-63,54-90,54-18,0-45-27-63-27v72H432Z" transform="translate(-213 -426.12)"/><text class="cls-5" transform="translate(225.49 69.44)">Blue <tspan class="cls-6"><tspan x="0" y="77">W</tspan><tspan class="cls-7" x="68.16" y="77">ater </tspan></tspan><tspan x="0" y="154">Music</tspan></text></svg>