<svg id="BWM-logo-bnw" xmlns="http://www.w3.org/2000/svg" viewBox="0 0 222 222"><defs><style>.cls-1{fill:#a65729;}.cls-1,.cls-2,.cls-3,.cls-4{stroke:#000;stroke-miterlimit:10;stroke-width:6px;}.cls-2{fill:#13647f;}.cls-3{fill:#0e5066;}.cls-4{fill:#0b3c4c;}</style></defs><rect class="cls-1" x="3" y="3" width="216" height="216"/><path id="wave3" class="cls-2" d="M432,534.34c-27,0-36-42.63-63-42.63-36,0-63,85.25-90,85.25-18,0-45-42.62-63-42.62V648H432Z" transform="translate(-213 -429)"/><path id="wave2" class="cls-3" d="M432,556.36c-27,0-36-34.36-63-34.36-36,0-63,68.73-90,68.73-18,0-45-34.37-63-34.37V648H432Z" transform="translate(-213 -429)"/><path id="wave1" class="cls-4" d="M432,576c-27,0-36-27-63-27-36,0-63,54-90,54-18,0-45-27-63-27v72H432Z" transform="translate(-213 -429)"/></svg>