<svg id="BWM-logo" xmlns="http://www.w3.org/2000/svg" viewBox="0 0 1802.75 247.56"><defs><style>.cls-1{fill:#a65729;}.cls-1,.cls-2,.cls-3,.cls-4{stroke:#000;stroke-miterlimit:10;stroke-width:6px;}.cls-2{fill:#13647f;}.cls-3{fill:#0e5066;}.cls-4{fill:#0b3c4c;}.cls-5{font-size:200px;fill:#fff;font-family:Roboto-Black, Roboto;font-weight:800;letter-spacing:-0.03em;}.cls-6{letter-spacing:-0.05em;}</style></defs><rect id="Rectangle" class="cls-1" x="3" y="3" width="216" height="216"/><path id="wave3" class="cls-2" d="M240.29,516.34c-27,0-36-42.63-63-42.63-36,0-63,85.25-90,85.25-18,0-45-42.62-63-42.62V630h216Z" transform="translate(-21.29 -411)"/><path id="wave2" class="cls-3" d="M240.29,538.36c-27,0-36-34.36-63-34.36-36,0-63,68.73-90,68.73-18,0-45-34.37-63-34.37V630h216Z" transform="translate(-21.29 -411)"/><path id="wave1" class="cls-4" d="M240.29,558c-27,0-36-27-63-27-36,0-63,54-90,54-18,0-45-27-63-27v72h216Z" transform="translate(-21.29 -411)"/><text class="cls-5" transform="translate(221.3 193.36)">Blue <tspan class="cls-6" x="426.47" y="0">W</tspan><tspan x="591.27" y="0">ater Music</tspan></text></svg>